HIERARCHY
ROOT Hips
{
 OFFSET 0.000000 0.000000 0.000000
 CHANNELS 6 Xposition Yposition Zposition Yrotation Xrotation Zrotation
 JOINT Chest
 {
  OFFSET 0.000000 9.585900 0.002600
  CHANNELS 3 Yrotation Xrotation Zrotation
  JOINT Chest2
  {
   OFFSET 0.000000 9.601200 -0.005300
   CHANNELS 3 Yrotation Xrotation Zrotation
   JOINT Chest3
   {
    OFFSET 0.000000 9.561800 0.000000
    CHANNELS 3 Yrotation Xrotation Zrotation
    JOINT Chest4
    {
     OFFSET 0.000000 9.552100 0.000000
     CHANNELS 3 Yrotation Xrotation Zrotation
     JOINT Neck
     {
      OFFSET 0.000000 14.453000 0.000000
      CHANNELS 3 Yrotation Xrotation Zrotation
      JOINT Head
      {
       OFFSET 0.000000 8.936500 -0.011300
       CHANNELS 3 Yrotation Xrotation Zrotation
       End Site
       {
        OFFSET 0.000000 17.073600 -0.006000
       }
      }
     }
     JOINT RightCollar
     {
      OFFSET -2.921100 9.558500 0.000000
      CHANNELS 3 Yrotation Xrotation Zrotation
      JOINT RightShoulder
      {
       OFFSET -13.519700 0.000000 0.000000
       CHANNELS 3 Yrotation Xrotation Zrotation
       JOINT RightElbow
       {
        OFFSET 0.000000 -29.696600 0.000000
        CHANNELS 3 Yrotation Xrotation Zrotation
        JOINT RightWrist
        {
         OFFSET 0.000000 -24.004700 0.000000
         CHANNELS 3 Yrotation Xrotation Zrotation
         End Site
         {
          OFFSET 0.000000 -17.728500 0.000000
         }
        }
       }
      }
     }
     JOINT LeftCollar
     {
      OFFSET 2.921100 9.558500 0.000000
      CHANNELS 3 Yrotation Xrotation Zrotation
      JOINT LeftShoulder
      {
       OFFSET 13.519700 0.000000 0.000000
       CHANNELS 3 Yrotation Xrotation Zrotation
       JOINT LeftElbow
       {
        OFFSET 0.000000 -29.696600 0.000000
        CHANNELS 3 Yrotation Xrotation Zrotation
        JOINT LeftWrist
        {
         OFFSET 0.000000 -24.004700 0.000000
         CHANNELS 3 Yrotation Xrotation Zrotation
         End Site
         {
          OFFSET 0.000000 -17.728500 0.000000
         }
        }
       }
      }
     }
    }
   }
  }
 }
 JOINT RightHip
 {
  OFFSET -7.771700 -0.012900 -0.001300
  CHANNELS 3 Yrotation Xrotation Zrotation
  JOINT RightKnee
  {
   OFFSET 0.000000 -40.869800 0.001200
   CHANNELS 3 Yrotation Xrotation Zrotation
   JOINT RightAnkle
   {
    OFFSET 0.000000 -39.717900 0.002100
    CHANNELS 3 Yrotation Xrotation Zrotation
    JOINT RightToe
    {
     OFFSET 0.000000 -4.965400 11.033500
     CHANNELS 3 Yrotation Xrotation Zrotation
     End Site
     {
      OFFSET 0.000000 -1.423100 5.872300
     }
    }
   }
  }
 }
 JOINT LeftHip
 {
  OFFSET 7.771700 -0.012900 -0.001300
  CHANNELS 3 Yrotation Xrotation Zrotation
  JOINT LeftKnee
  {
   OFFSET 0.000000 -40.869800 0.001200
   CHANNELS 3 Yrotation Xrotation Zrotation
   JOINT LeftAnkle
   {
    OFFSET 0.000000 -39.717900 0.002100
    CHANNELS 3 Yrotation Xrotation Zrotation
    JOINT LeftToe
    {
     OFFSET 0.000000 -4.965400 11.033500
     CHANNELS 3 Yrotation Xrotation Zrotation
     End Site
     {
      OFFSET 0.000000 -1.423100 5.872300
     }
    }
   }
  }
 }
}
MOTION
Frames: 14
Frame Time: 0.008333
0.000000 85.388000 0.000000 0.000000 -5.767877 0.000000 0.000000 11.653817 0.000000 0.000000 -5.885947 0.000000 0.000000 -0.000000 0.000000 0.000000 -0.000000 0.000000 0.000000 12.528835 0.000000 0.000000 0.711642 0.000000 0.000000 -0.000000 0.000000 0.000000 0.000000 -90.000000 0.000000 -2.309062 0.000000 0.000000 2.309062 0.000000 0.000000 -0.000000 0.000000 0.000000 -0.000000 90.000000 0.000000 -2.309062 0.000000 0.000000 2.309062 0.000000 0.000000 8.520406 0.000000 0.000000 1.905762 0.000000 -0.000000 -4.658285 0.000000 0.000000 -0.000000 0.000000 0.000000 8.520406 0.000000 0.000000 1.905762 0.000000 -0.000000 -4.658285 0.000000 0.000000 -0.000000 0.000000
-39.009276 62.088641 13.131153 176.923131 -52.682714 0.090319 4.271082 27.765235 1.931063 0.565646 4.904538 0.267953 0.958311 7.749175 0.468192 3.112115 22.352445 1.792350 5.926265 17.563835 1.218058 10.601350 -3.109007 0.229000 2.701899 -1.148909 0.600906 1.775992 -14.546765 -7.771810 -136.920352 -49.685178 165.399064 13.230988 -9.568415 -28.402615 -9.195102 -2.190851 6.777419 -3.556863 -12.803389 8.659858 141.554757 -54.743262 -161.426149 13.033953 -16.010984 18.246904 3.700986 -14.276843 -6.533782 -1.396701 61.369621 -5.326660 1.291079 -8.001424 10.188047 0.151217 -0.462164 0.080247 -4.121331 -11.256945 0.842709 26.437059 76.359285 26.981275 1.101723 -11.859890 -4.058171 0.226035 0.689593 0.101169
-39.004879 62.090780 13.138524 176.892950 -52.694757 0.080314 4.269976 27.769182 1.940450 0.566220 4.906492 0.265414 0.965859 7.760063 0.472140 3.091926 22.371917 1.791155 5.865529 17.540860 1.237242 10.481204 -3.144417 0.289219 2.731177 -1.158139 0.583670 1.615017 -14.381897 -7.656306 -136.885172 -49.804123 165.385956 13.211913 -9.485766 -28.426336 -9.145140 -2.190340 6.760980 -3.644689 -12.685696 8.672908 141.693446 -55.057819 -161.565096 12.889069 -15.950441 18.228527 3.705884 -14.257229 -6.495150 -1.404368 61.334896 -5.325078 1.277316 -7.995143 10.177944 0.163604 -0.449129 0.080787 -4.114944 -11.241302 0.880912 26.406373 76.356321 26.948042 1.102527 -11.850309 -4.060109 0.216500 0.684191 0.100507
-39.004039 62.096028 13.143962 176.885418 -52.731521 0.073715 4.249565 27.794506 1.927618 0.570596 4.911130 0.267539 0.983980 7.768279 0.479925 3.053598 22.390059 1.783733 5.804885 17.521017 1.261541 10.358007 -3.167735 0.355814 2.704451 -1.121783 0.557722 1.514279 -14.246558 -7.529024 -136.807978 -49.935834 165.346637 13.183110 -9.411211 -28.457593 -9.098798 -2.201496 6.752538 -3.722703 -12.552775 8.684891 141.838209 -55.397508 -161.724786 12.746412 -15.879990 18.206710 3.699290 -14.211099 -6.474946 -1.405713 61.309958 -5.327159 1.260977 -7.993660 10.173567 0.175609 -0.441828 0.081686 -4.114123 -11.200974 0.896257 26.349342 76.348409 26.880772 1.119293 -11.827699 -4.050077 0.197338 0.672431 0.095793
-39.002939 62.098979 13.151045 176.877514 -52.753720 0.065316 4.224504 27.798622 1.909166 0.579184 4.911456 0.270261 0.973916 7.784442 0.480729 3.049179 22.401735 1.786949 5.744438 17.506624 1.281752 10.233769 -3.183361 0.428475 2.676706 -1.087396 0.532828 1.426330 -14.089709 -7.408099 -136.688771 -50.076022 165.278526 13.145844 -9.335681 -28.490653 -9.046206 -2.178625 6.732436 -3.804861 -12.448051 8.711984 141.975334 -55.759956 -161.883986 12.590890 -15.787257 18.181232 3.697632 -14.187127 -6.458340 -1.400842 61.296116 -5.321667 1.258217 -7.987744 10.179181 0.178337 -0.451978 0.075437 -4.119004 -11.178566 0.914095 26.335936 76.348543 26.857581 1.125703 -11.820406 -4.049229 0.190928 0.668298 0.096381
-38.999749 62.103299 13.156462 176.863861 -52.789591 0.049891 4.218633 27.808835 1.909655 0.581972 4.910106 0.270599 0.967772 7.798358 0.482152 3.010853 22.406037 1.772244 5.764972 17.511449 1.296895 10.064571 -3.208970 0.533845 2.680305 -1.037177 0.522977 1.350537 -13.922089 -7.297046 -136.529541 -50.222746 165.179956 13.102555 -9.250625 -28.524715 -8.963672 -2.146213 6.715905 -3.855796 -12.403636 8.735851 141.985724 -56.192226 -161.954147 12.416911 -15.655866 18.151279 3.695797 -14.146232 -6.431264 -1.400366 61.274698 -5.313591 1.263969 -7.980244 10.175743 0.181205 -0.460683 0.073603 -4.119749 -11.138549 0.943592 26.309545 76.348706 26.825125 1.133150 -11.816052 -4.047559 0.195677 0.664377 0.093588
-38.997828 62.107922 13.160445 176.864432 -52.831279 0.031651 4.215247 27.823704 1.916111 0.588014 4.925009 0.274929 0.942519 7.778907 0.463285 3.026230 22.427409 1.782180 5.679744 17.503862 1.338196 9.961362 -3.218743 0.603421 2.645449 -0.987166 0.515263 1.279219 -13.746553 -7.188134 -136.331748 -50.373848 165.057015 13.050006 -9.154424 -28.563932 -8.928199 -2.117182 6.697382 -3.968727 -12.257063 8.781217 142.112435 -56.570945 -162.096216 12.236020 -15.482424 18.116875 3.684160 -14.099882 -6.418040 -1.391506 61.258348 -5.296153 1.277170 -7.973970 10.174692 0.183817 -0.472066 0.068711 -4.120037 -11.092427 0.972421 26.198978 76.357947 26.709260 1.136185 -11.816504 -4.041476 0.190427 0.662371 0.092983
-38.996992 62.111272 13.163977 176.872188 -52.867096 0.014679 4.198317 27.812268 1.898089 0.599902 4.960388 0.292288 0.937640 7.773496 0.457555 3.023641 22.433743 1.782570 5.594786 17.493777 1.380208 9.856196 -3.230158 0.674809 2.614867 -0.940198 0.503871 1.204769 -13.560018 -7.077967 -136.097191 -50.532090 164.917463 12.986871 -9.054961 -28.615313 -8.890847 -2.077473 6.687467 -4.094182 -12.116764 8.822667 142.200085 -56.961106 -162.208425 12.058410 -15.292471 18.066315 3.668616 -14.061099 -6.409099 -1.394305 61.245540 -5.292024 1.275935 -7.966271 10.177723 0.174467 -0.493269 0.067919 -4.119584 -11.055694 0.986980 26.152979 76.360515 26.665944 1.133893 -11.811198 -4.040793 0.191009 0.657968 0.094637
-38.995506 62.113937 13.166685 176.870862 -52.900985 0.001453 4.205244 27.838298 1.912471 0.589282 4.930069 0.273233 0.945584 7.795659 0.467330 3.021073 22.439556 1.782891 5.531455 17.484422 1.414894 9.728023 -3.252713 0.759099 2.584120 -0.895712 0.491921 1.137138 -13.368904 -6.971231 -135.832821 -50.700664 164.761909 12.913180 -8.959628 -28.675842 -8.862392 -2.036283 6.677086 -4.208595 -12.001286 8.866137 142.207681 -57.384418 -162.253504 11.878079 -15.121472 17.983386 3.651768 -14.025590 -6.398490 -1.393742 61.232831 -5.284904 1.278464 -7.960088 10.179766 0.184694 -0.494489 0.058192 -4.112596 -11.020663 1.003281 26.119278 76.362361 26.638771 1.137378 -11.804658 -4.048432 0.187035 0.652174 0.102196
-38.994600 62.118184 13.166908 176.896600 -52.948998 -0.029261 4.190313 27.863332 1.911139 0.592248 4.934273 0.275161 0.946932 7.801775 0.468809 3.017821 22.445608 1.782849 5.466133 17.471617 1.448318 9.596678 -3.281573 0.841405 2.517894 -0.841098 0.456072 1.107047 -13.189449 -6.846918 -135.541984 -50.877046 164.588968 12.831713 -8.871685 -28.739972 -8.842406 -2.001823 6.659598 -4.327705 -11.876044 8.919290 142.192469 -57.818118 -162.262896 11.688827 -14.992340 17.852917 3.620202 -13.971672 -6.392697 -1.391269 61.221396 -5.277095 1.291332 -7.958632 10.182242 0.187259 -0.498010 0.049769 -4.120188 -10.971709 1.011916 26.096475 76.361875 26.623841 1.146374 -11.794173 -4.055510 0.177459 0.643979 0.104543
-38.994623 62.119778 13.167953 176.911018 -52.978905 -0.046088 4.189322 27.859356 1.903958 0.591884 4.953206 0.283302 0.945233 7.808352 0.472013 3.018107 22.451101 1.779797 5.414998 17.458995 1.476422 9.442916 -3.323442 0.931417 2.508760 -0.831924 0.459018 1.030849 -12.967857 -6.767896 -135.223459 -51.059847 164.400448 12.750208 -8.795355 -28.804960 -8.840230 -1.984519 6.633664 -4.423816 -11.737736 8.984476 142.160676 -58.256908 -162.250720 11.491722 -14.913502 17.669589 3.579397 -13.941279 -6.397953 -1.367756 61.212503 -5.254198 1.308478 -7.959856 10.177824 0.183361 -0.500978 0.044677 -4.118991 -10.943123 1.016172 26.137623 76.355999 26.667194 1.154841 -11.786583 -4.058448 0.199366 0.642208 0.101846
-38.994430 62.121259 13.168160 176.925161 -53.008636 -0.064215 4.192881 27.869180 1.904629 0.592952 4.957612 0.283528 0.940175 7.820451 0.483653 3.024177 22.453701 1.769914 5.343468 17.439353 1.508980 9.300622 -3.364870 1.014022 2.455723 -0.800273 0.446242 0.996293 -12.773475 -6.674910 -134.881375 -51.248441 164.198425 12.674712 -8.732291 -28.866493 -8.855662 -1.974383 6.605134 -4.486981 -11.597711 9.055835 142.155938 -58.697993 -162.261178 11.281063 -14.878979 17.444453 3.546275 -13.910374 -6.398669 -1.361299 61.204943 -5.244816 1.314472 -7.960776 10.185415 0.191375 -0.502312 0.032425 -4.115639 -10.915103 1.021626 26.134634 76.357617 26.672864 1.165608 -11.779486 -4.061675 0.201532 0.636802 0.103496
-38.994454 62.121265 13.168719 176.938200 -53.027028 -0.080747 4.196427 27.878062 1.907791 0.593946 4.959533 0.283625 0.942172 7.822743 0.481671 3.030005 22.457072 1.767260 5.253696 17.413769 1.546242 9.173700 -3.403857 1.088839 2.358841 -0.722082 0.404152 1.010645 -12.629008 -6.556365 -134.526947 -51.439296 163.985779 12.606633 -8.678272 -28.926309 -8.876598 -1.972026 6.574451 -4.532880 -11.451058 9.128983 142.232290 -59.138437 -162.334206 11.047063 -14.871841 17.192987 3.519636 -13.891345 -6.400392 -1.353079 61.198363 -5.232929 1.323347 -7.963474 10.181817 0.186649 -0.502095 0.032819 -4.109734 -10.899424 1.028218 26.128569 76.360708 26.677886 1.163430 -11.776536 -4.059764 0.217254 0.634703 0.101983
-38.994091 62.120969 13.168958 176.950189 -53.041945 -0.099071 4.202171 27.881548 1.906359 0.590767 4.967754 0.296976 0.957530 7.814472 0.452034 3.034362 22.464067 1.783317 5.182736 17.390222 1.579744 9.032181 -3.452259 1.172810 2.304577 -0.679876 0.399927 1.013489 -12.451421 -6.483346 -134.169392 -51.630878 163.764969 12.545954 -8.625329 -28.983750 -8.896220 -1.976120 6.549407 -4.571537 -11.296341 9.194074 142.420057 -59.576194 -162.486122 10.784489 -14.873129 16.927429 3.494649 -13.876665 -6.404783 -1.382877 61.191049 -5.243399 1.354293 -7.965386 10.163026 0.171157 -0.507876 0.049704 -4.104037 -10.886690 1.038557 26.151199 76.360046 26.712723 1.141137 -11.775010 -4.055741 0.187426 0.635959 0.097264
